<?xml version="1.0" encoding="utf-8"?>
<!-- Generator: Adobe Illustrator 24.0.3, SVG Export Plug-In . SVG Version: 6.00 Build 0)  -->
<svg version="1.1" id="Шар_1" xmlns="http://www.w3.org/2000/svg" xmlns:xlink="http://www.w3.org/1999/xlink" x="0px" y="0px"
	 viewBox="0 0 982.04 142.9" style="enable-background:new 0 0 982.04 142.9;" xml:space="preserve">
<g>
	<path d="M981.17,12.67c-2.12,4.03-4.08,8.16-6.39,12.09c-5.21,8.87-10.8,17.53-15.84,26.5c-3.7,6.59-6.78,13.54-10.14,20.33
		c-0.39,0.78-0.76,1.58-1.22,2.32c-0.47,0.77-0.95,0.73-1.38-0.11c-1-1.95-1.03-4.06-0.7-6.1c1.16-7.05,2.71-14,5.75-20.54
		c3.39-7.31,6.71-14.64,10.1-21.95c3.15-6.8,6.34-13.58,9.53-20.37c0.6-1.29,0.64-2.59,0.29-3.95c-0.13-0.5,0.01-1.07,0.03-1.6
		c0.57,0.05,1.21-0.05,1.7,0.18c3.75,1.73,6.43,4.5,7.86,8.42c0.12,0.32,0.28,0.63,0.42,0.95
		C981.17,10.11,981.17,11.39,981.17,12.67z"/>
	<path d="M327.45,72.71c-3.39,4.1-6.58,8.08-9.9,11.95c-4.63,5.39-9.35,10.69-14.83,15.26c-0.37,0.31-0.75,0.6-1.14,0.88
		c-2.65,1.91-4.62,1.66-6.88-0.8c-2.33-2.52-3.11-5.37-1.79-8.59c1.65-4.06,3.32-8.12,5.16-12.09c3.36-7.27,6.88-14.48,10.28-21.73
		c0.54-1.16,0.82-2.44,1.23-3.67c-0.1-0.08-0.21-0.16-0.31-0.23c-1.35,0.74-2.71,1.46-4.04,2.23c-3.55,2.08-7.07,4.19-10.62,6.26
		c-0.58,0.34-1.23,0.56-1.87,0.78c-3.8,1.29-7.11-0.83-7.67-4.93c7.88-0.65,14.77-4.28,21.9-7.22c0.92-0.38,1.86-0.71,2.77-1.12
		c1.68-0.76,3.3-0.62,4.76,0.43c1.32,0.94,2.61,1.95,3.77,3.09c1.28,1.25,1.61,2.84,0.85,4.52c-1.31,2.9-2.56,5.85-4.03,8.67
		c-3.85,7.39-7.82,14.73-11.7,22.1c-0.53,1-0.86,2.11-1.29,3.17c0.08,0.05,0.17,0.1,0.25,0.16c2.92-2.57,5.88-5.11,8.76-7.73
		c5.36-4.88,10.25-10.2,14.27-16.22c1.64-2.46,2.69-5.31,3.98-8c0.72-1.51,1.37-3.05,2.06-4.58c0.44-0.97,1.12-1.44,2.26-1.34
		c2.07,0.18,3.99,0.76,5.7,1.94c0.95,0.66,1.56,1.52,1.2,2.74c-0.98,3.36-1.71,6.83-3.04,10.05c-3.24,7.85-6.76,15.58-10.17,23.35
		c-0.17,0.38-0.35,0.76-0.32,1.34c2.33-1.35,4.75-2.56,6.96-4.08c4.69-3.23,9.28-6.62,13.88-9.98c0.46-0.34,0.74-0.92,1.11-1.39
		c1.37-1.71,2.69-3.45,4.12-5.1c1.03-1.19,2.41-1.59,3.9-0.9c1.54,0.72,3.08,1.47,4.49,2.39c1.11,0.73,1.16,1.64,0.39,2.53
		c-3.41,3.93-5.77,8.5-7.88,13.21c-0.68,1.52-1.27,3.11-1.62,4.73c-0.38,1.75,0.52,2.45,2.08,1.58c1.58-0.89,3.14-1.97,4.36-3.29
		C364,87.45,369.14,81.83,374.04,76c3.15-3.75,5.88-7.84,8.76-11.8c1.39-1.91,1.83-4.1,1.87-6.43c0.04-2.09,0.44-2.44,2.46-2.11
		c2.6,0.42,4.99,1.37,6.95,3.22c0.91,0.86,1.4,1.92,1.06,3.13c-0.96,3.41-1.92,6.82-3.07,10.17c-2.17,6.29-4.51,12.53-6.69,18.82
		c-0.47,1.34-0.63,2.8-0.83,4.22c-0.18,1.28,0.5,1.82,1.6,1.17c3.08-1.84,6.17-3.68,9.08-5.76c4.31-3.09,8.46-6.4,12.71-9.58
		c0.76-0.57,1.05-1.14,0.59-2.01c-0.02-0.03-0.02-0.08-0.03-0.12c-0.77-3.03-0.28-3.97,2.81-4.13c2.45-0.12,3.95-0.97,5-3.25
		c1.93-4.19,4.16-8.25,6.21-12.39c0.4-0.81,0.58-1.74,0.91-2.59c0.29-0.76,0.83-1.04,1.69-0.96c2.34,0.23,4.4,1.06,6.2,2.57
		c1.32,1.11,1.76,2.26,1.03,3.82c-1.28,2.74-2.74,5.4-4.14,8.08c-0.7,1.33-1.46,2.62-2.26,4.06c1.57,0,3.02-0.2,4.39,0.04
		c2.6,0.46,3.6-0.91,4.59-3.03c2.38-5.09,5.73-9.55,9.44-13.77c2.13-2.43,4.59-3.07,7.49-1.92c1.76,0.7,3.48,1.56,5.07,2.6
		c1.65,1.08,1.53,1.59-0.08,2.63c-3.68,2.37-6.54,5.59-9.17,9.03c-4.33,5.66-7.79,11.78-9.71,18.68c-0.55,1.98-0.82,4.07-0.96,6.12
		c-0.2,2.87,1.83,4.14,4.37,2.75c1.02-0.56,2.03-1.38,2.69-2.32c1.61-2.27,3.04-4.67,4.48-7.06c0.23-0.38,0.2-0.99,0.12-1.46
		c-1.02-6.01-0.82-11.94,1.37-17.68c1.2-3.15,3.11-3.73,6.05-2.05c0.72,0.41,1.41,0.91,2.05,1.45c1.61,1.36,1.85,3.16,1.57,5.12
		c-0.61,4.2-2.19,8.07-4.01,11.86c-0.38,0.78-0.64,1.43,0.11,2.15c0.76,0.72,1.42,0.32,2.04-0.13c3.92-2.81,7.73-5.78,11.76-8.42
		c3-1.96,4.21-5.12,6.07-7.86c3.33-4.93,6.73-9.79,11.1-13.9c2.05-1.93,4.24-2.26,6.83-1.44c2.98,0.94,5.82,2.15,8.64,4.14
		c0.43-2.62,1.01-5.03,1.18-7.47c0.54-8-0.45-15.84-2.92-23.49c-0.37-1.13-0.87-2-2.13-2.27c-0.38-0.08-0.74-0.3-1.1-0.47
		c-3.99-1.81-4.61-3.22-3.7-7.97c0.35-1.83,1.37-3.38,2.73-4.69c1.2-1.15,2.36-1.35,3.79-0.47c1.15,0.71,2.29,1.48,3.3,2.37
		c0.68,0.6,1.19,0.52,1.89,0.17c2.94-1.44,5.84-2.97,8.86-4.22c6.49-2.68,13.23-4.42,20.3-4.59c5.56-0.13,9.93,1.98,12.8,6.87
		c0.08,0.14,0.14,0.28,0.2,0.43c0.01,0.03-0.01,0.08-0.01,0.09c-14.67-0.89-27.96,3.35-40.46,10.61c1.43,6,2.12,11.93,2.11,17.92
		c-0.01,4.42,0.08,8.87-0.37,13.26c-0.64,6.24-2.88,12.08-5.5,17.74c-3.62,7.82-8.11,15.11-13.79,21.62
		c-2.29,2.62-4.76,5.05-7.68,6.98c-1.87,1.24-3.86,1.67-6.04,1.04c-3.55-1.02-6.39-3.01-8.45-6.11c-1.48-2.23-1.35-4.63-0.74-7.04
		c0.46-1.8,1.1-3.55,1.64-5.27c-2.26,1.79-4.5,3.68-6.86,5.4c-1.87,1.36-3.82,2.7-6.32,2.47c-0.97-0.09-1.94-0.34-2.68-0.48
		c-2.33,2.69-4.54,5.47-7,8.01c-2.84,2.94-6.34,4.11-10.39,2.8c-3.59-1.16-6.37-5.18-6.45-9.12c-0.1-4.99,1.06-9.73,2.75-14.38
		c0.11-0.3,0.22-0.6,0.33-0.9c0.02-0.07,0-0.15,0-0.39c-2.14,0.38-4.24,0.88-6.36,1.08c-1.97,0.19-3.12,1.11-3.94,2.86
		c-2.3,4.86-4.8,9.63-7.03,14.52c-0.79,1.72-1,3.69-1.56,5.52c-0.43,1.41-1.01,1.71-2.44,1.24c-2.4-0.79-4.48-2.1-6.12-4.04
		c-0.7-0.83-0.95-1.79-0.76-2.91c0.54-3.13,2.09-5.84,3.5-8.61c0.08-0.16,0.16-0.32,0.36-0.75c-2.54,2.38-4.83,4.59-7.2,6.7
		c-3.84,3.43-7.84,6.66-12.29,9.3c-4.93,2.92-9.9,0.63-12.23-3.59c-1.1-1.98-0.92-4.17-0.35-6.19c1.38-4.99,2.99-9.91,4.52-14.85
		c0.43-1.4,0.94-2.77,1.41-4.16c-0.09-0.05-0.18-0.1-0.27-0.15c-1.01,1.29-2.02,2.58-3.04,3.86c-4.89,6.14-9.67,12.38-14.74,18.37
		c-2.14,2.53-4.85,4.59-7.4,6.75c-1.31,1.11-2.95,1.16-4.53,0.48c-3.27-1.41-5.95-3.49-7.13-6.98c-0.75-2.22-0.2-4.51,0.22-6.75
		c0.24-1.28,0.65-2.53,1.02-3.9c-2.12,1.64-4.06,3.37-6.22,4.75c-4.83,3.1-9.78,6.02-14.65,9.06c-0.63,0.39-1.27,0.97-1.61,1.62
		c-5.42,10.15-11.12,20.11-18.33,29.14c-2.49,3.12-5.2,6.05-8.47,8.4c-4.1,2.95-7.77,2.88-11.75-0.23c-0.91-0.71-1.8-1.46-2.59-2.3
		c-2.72-2.87-4.82-6.11-5.99-9.95c-0.8-2.65,0.21-4.56,2.12-6.22c4.1-3.55,8.72-6.34,13.48-8.87c7.89-4.2,15.88-8.2,23.8-12.32
		c0.58-0.3,1.15-0.86,1.45-1.44c3.93-7.58,7.61-15.28,10.5-23.32C327.07,73.81,327.22,73.37,327.45,72.71z M501.41,61.9
		c-3.03-0.04-5.85-0.41-8.07,1.87c-1,1.03-2.08,1.99-3,3.08c-4.6,5.47-8.18,11.59-11.13,18.07c-1.3,2.85-2.24,5.87-3.24,8.84
		c-0.22,0.64,0.01,1.44,0.03,2.16c0.85-0.1,1.69-0.19,2.54-0.31c0.18-0.03,0.36-0.18,0.5-0.31c2.12-1.86,4.45-3.54,6.31-5.63
		c5.64-6.31,10.1-13.43,13.5-21.19C499.77,66.39,500.52,64.21,501.41,61.9z M311.98,106.07c-0.36,0.12-0.46,0.14-0.55,0.19
		c-6.38,3.76-12.83,7.42-19.11,11.35c-2.43,1.52-4.51,3.63-6.68,5.55c-1.01,0.9-1.02,2.09-0.52,3.31c1.13,2.77,3.11,4.79,5.65,6.28
		c1.06,0.62,2.14,0.56,3.08-0.32c0.78-0.74,1.6-1.45,2.3-2.26c4.58-5.3,8.26-11.23,11.81-17.23
		C309.29,110.73,310.57,108.5,311.98,106.07z"/>
	<path d="M596.15,60.21c0.08-0.2,0.13-0.27,0.14-0.34c0.2-2.2,0.69-2.52,2.59-1.3c1.66,1.06,3.17,2.39,4.69,3.66
		c1.4,1.17,1.22,2.74,0.95,4.32c-0.48,2.83-1.97,5.12-3.9,7.14c-5.26,5.49-11.67,8.95-19.08,10.55c-1.21,0.26-2.53,0-3.8,0.06
		c-0.38,0.02-0.94,0.24-1.08,0.53c-1.57,3.16-2.84,6.41-3.09,9.98c-0.12,1.65,0.52,2.38,2.2,2.36c2.74-0.03,5.23-1.04,7.67-2.11
		c10.21-4.49,19.55-10.44,28.56-16.95c0.26-0.19,0.5-0.4,0.78-0.55c0.95-0.53,1.46-1.16,1.12-2.4c-0.25-0.92-0.04-1.94,0.87-2.56
		c0.89-0.6,1.68-0.17,2.43,0.34c0.45,0.3,0.81,0.47,1.16-0.17c2.21-4.11,4.56-8.16,5.53-12.8c0.25-1.2,0.22-2.46,0.41-3.68
		c0.21-1.31,0.66-1.63,1.96-1.46c2.35,0.29,4.48,1.14,6.34,2.61c1.58,1.26,2.2,2.95,1.38,4.79c-1.97,4.4-4.11,8.73-6.18,13.08
		c-0.29,0.61-0.62,1.2-1.04,2.01c0.76,0.15,1.39,0.39,2.02,0.39c2.55,0,5.1-0.08,7.65-0.13c0.7-0.01,1.07-0.35,1.39-1.03
		c2.69-5.71,5.68-11.26,9.3-16.45c1.33-1.9,2.26-2.33,4.47-1.67c1.35,0.4,2.7,1,3.89,1.76c1.61,1.04,1.72,1.85,0.75,3.53
		c-1.96,3.38-4.05,6.69-5.92,10.12c-2.8,5.15-5.49,10.36-8.14,15.58c-0.57,1.12-0.79,2.42-1.11,3.65c-0.11,0.43-0.02,0.92-0.02,1.69
		c0.8-0.37,1.41-0.54,1.9-0.89c5.28-3.72,10.57-7.44,15.81-11.22c3.33-2.4,6.68-4.79,9.87-7.39c1.36-1.11,2.31-2.71,3.45-4.08
		c4.56-5.44,9.53-10.44,15.64-14.14c1.69-1.02,3.56-1.76,5.42-2.45c1.92-0.71,3.69-0.14,5.24,1.14c1.23,1.02,2.48,2.02,3.6,2.93
		c1.17-1.66,2.69-3.8,4.2-5.94c0.62-0.88,1.4-1.13,2.49-0.97c2.28,0.32,3.99,1.49,5.41,3.21c0.65,0.79,0.7,1.52,0.16,2.4
		c-3.34,5.49-6.72,10.95-9.95,16.5c-4.99,8.56-9.49,17.36-12.67,26.78c-1.71,5.07-2.49,10.23-1.57,15.55
		c0.22,1.25,0.66,2.46,0.96,3.7c0.09,0.36,0.07,0.74,0.11,1.11c-0.38,0.02-0.78,0.13-1.15,0.06c-1.87-0.34-3.26-1.52-4.41-2.91
		c-2.2-2.66-3.34-5.74-3.45-9.23c-0.24-7.92,2.21-15.17,5.44-22.24c0.44-0.96,0.86-1.92,1.29-2.88c-0.1-0.07-0.2-0.14-0.3-0.21
		c-0.31,0.36-0.63,0.71-0.92,1.09c-3.8,4.88-7.55,9.79-11.43,14.61c-1.52,1.89-3.23,3.63-4.98,5.31c-1.72,1.65-2.98,1.79-4.95,0.48
		c-4.77-3.18-6.39-6.52-5.14-12.12c0.6-2.71,1.61-5.33,2.44-7.98c0.09-0.29,0.21-0.58,0.17-0.98c-1.69,1.59-3.36,3.2-5.07,4.77
		c-5.08,4.67-10.21,9.28-16,13.09c-2.49,1.64-4.96,2-7.46,0.27c-2.62-1.82-4.17-4.3-3.87-7.6c0.39-4.27,2.03-8.18,3.63-12.1
		c0.13-0.32,0.25-0.64,0.33-0.84c-3.73,0.36-7.44,0.71-11.41,1.09c-0.7,1.31-1.61,2.95-2.45,4.62c-1.6,3.17-3.29,6.31-4.67,9.58
		c-0.71,1.68-0.91,3.6-1.21,5.43c-0.16,0.96-0.55,1.36-1.49,1.24c-3.07-0.38-5.66-1.68-7.43-4.26c-0.93-1.35-0.58-2.9,0.04-4.25
		c1.41-3.08,2.93-6.11,4.46-9.13c0.86-1.7,1.86-3.33,2.64-5.14c-1.32,1.15-2.63,2.31-3.95,3.45c-7.58,6.51-15.37,12.74-24.44,17.12
		c-2.56,1.24-5.2,2.13-8.08,2.4c-6.09,0.57-12.26-4.83-12.28-10.93c0-1.54,0.17-3.09,0.27-4.86c-1.22,1.14-2.31,2.16-3.4,3.18
		c-4.74,4.41-9.59,8.69-15.21,11.97c-5.01,2.92-11.39,0.44-12.72-4.93c-0.6-2.44-0.09-4.87,0.62-7.19c1.62-5.25,3.4-10.46,5.1-15.68
		c0.12-0.37,0.22-0.75,0.13-1.26c-1.43,1.86-2.88,3.71-4.29,5.59c-5.27,7.02-10.6,14-16.82,20.23c-1.23,1.23-2.68,2.26-4.09,3.29
		c-1.39,1.01-2.96,1.16-4.55,0.48c-3.55-1.54-6.65-3.76-7.26-7.78c-0.36-2.39,0.1-5.03,0.72-7.43c1.4-5.42,3.85-10.36,7.59-14.62
		c1.87-2.13,3.12-2.62,5.77-1.57c1.35,0.53,2.6,1.37,3.77,2.23c1,0.74,0.94,1.56,0.12,2.55c-3.98,4.83-6.74,10.34-8.99,16.13
		c-0.27,0.7-0.4,1.47-0.46,2.22c-0.1,1.07,0.56,1.66,1.55,1.28c1.02-0.4,2.11-0.9,2.86-1.66c3.91-3.98,7.87-7.93,11.54-12.13
		c4.16-4.77,8.09-9.75,11.98-14.76c1.43-1.84,2.63-3.92,3.61-6.05c0.59-1.28,0.62-2.84,0.76-4.29c0.19-1.98,0.47-2.33,2.43-2.05
		c2.62,0.38,4.99,1.36,6.97,3.18c1,0.92,1.47,2.05,1.09,3.34c-1.08,3.66-2.16,7.33-3.4,10.94c-2.02,5.84-4.21,11.61-6.24,17.45
		c-0.5,1.45-0.69,3.03-0.91,4.57c-0.2,1.37,0.45,1.91,1.62,1.23c2.69-1.55,5.39-3.13,7.9-4.95c4.93-3.58,9.75-7.33,14.58-11.05
		c0.64-0.49,1.17-1.2,1.58-1.91c4.21-7.27,9.51-13.58,16.23-18.66c0.22-0.17,0.47-0.31,0.68-0.49c2.55-2.22,5.17-1.8,7.84-0.25
		C594.68,59.43,595.38,59.79,596.15,60.21z M699.63,62.58c-1.65-1.81-3.49-1.96-5.95-0.46c-3.38,2.06-6.18,4.8-8.78,7.73
		c-4.93,5.58-9.32,11.57-12.69,18.22c-1.32,2.61-2.26,5.43-3.25,8.19c-0.21,0.58,0.09,1.35,0.16,2.03c0.64-0.31,1.41-0.49,1.9-0.96
		c3.51-3.43,6.98-6.91,10.44-10.4C688.62,79.69,694.41,71.4,699.63,62.58z M595.93,63.52c-3.18,1.1-5.81,2.89-7.91,5.31
		c-2.55,2.95-4.9,6.08-7.29,9.17c-0.78,1-1.39,2.13-2.09,3.2c0.09,0.09,0.18,0.19,0.27,0.28c1.47-0.76,2.96-1.5,4.42-2.28
		c4.05-2.18,7.68-4.85,10.21-8.8C594.89,68.32,595.79,66.11,595.93,63.52z"/>
	<path d="M140.5,92.9c0.99-0.7,2.1-1.28,2.96-2.12c3.84-3.78,7.57-7.67,11.42-11.44c6.05-5.92,9.71-13.51,14.36-20.41
		c1.26-1.87,1.44-1.97,3.65-1.44c1.68,0.4,3.26,1.01,4.53,2.28c0.81,0.81,1.05,1.67,0.51,2.7c-1.69,3.26-3.41,6.5-5.09,9.76
		c-2.85,5.53-5.69,11.07-8.49,16.62c-0.37,0.73-0.49,1.58-0.73,2.38c0.14,0.09,0.27,0.17,0.41,0.26c1-0.75,2.04-1.46,3-2.26
		c5.16-4.31,10.18-8.81,14.25-14.16c2.66-3.5,4.64-7.52,6.93-11.31c0.89-1.47,1.78-2.93,2.68-4.39c0.55-0.9,1.33-1.16,2.36-0.93
		c1.73,0.38,3.22,1.15,4.4,2.48c1.14,1.28,1.39,2.67,0.56,4.18c-2.53,4.62-5.22,9.15-7.66,13.81c-1.96,3.74-3.69,7.59-5.45,11.43
		c-0.28,0.62-0.18,1.41-0.25,2.13c0.77-0.09,1.68,0.04,2.29-0.32c2.92-1.72,5.86-3.43,8.6-5.41c5.94-4.31,11.81-8.73,17.59-13.25
		c1.51-1.18,2.59-2.9,3.89-4.36c4.46-5,9.26-9.59,15.17-12.88c1.04-0.58,2.14-1.1,3.27-1.46c3.45-1.09,4.85-0.45,7.73,2.44
		c0.59,0.59,1.06,1.29,1.63,1.98c1.26-1.85,2.47-3.72,3.78-5.52c1.59-2.2,1.7-2.5,4.93-1.53c0.78,0.23,1.52,0.73,2.16,1.24
		c2.57,2.07,2.61,2.56,0.9,5.31c-5.71,9.23-11.44,18.45-16.14,28.25c-2.97,6.19-5.81,12.45-7.09,19.26
		c-0.88,4.65-0.8,9.28,0.92,13.79c0.37,0.98,0.03,1.33-1.06,1.05c-2.89-0.74-4.64-2.83-6.05-5.28c-1.98-3.45-2.13-7.19-1.78-11.03
		c0.61-6.66,2.88-12.8,5.65-18.81c0.34-0.74,0.66-1.49,0.99-2.24c-0.09-0.06-0.19-0.12-0.28-0.19c-0.26,0.3-0.54,0.59-0.78,0.9
		c-4.19,5.33-8.32,10.71-12.58,15.98c-1.4,1.73-3.1,3.21-4.73,4.73c-0.93,0.87-2.05,0.95-3.23,0.39c-3.54-1.68-7.52-5.57-6.29-12.02
		c0.67-3.52,1.78-6.86,3.28-10.09c0.1-0.21,0.18-0.44,0.26-0.66c0.01-0.02-0.03-0.07-0.06-0.11c-2.36,2.12-4.64,4.34-7.1,6.34
		c-4.3,3.5-8.7,6.86-13.06,10.29c-2.23,1.75-4.54,1.97-6.97,0.4c-2.72-1.76-4.73-3.83-4.34-7.47c0.29-2.71,1.28-5.17,2.26-7.65
		c0.2-0.51,0.37-1.03,0.34-1.67c-1.07,1.48-2.14,2.97-3.22,4.44c-3.01,4.09-6.16,8.04-10.01,11.39c-2.12,1.84-4.41,1.87-6.81,0.85
		c-2.47-1.05-4.5-2.63-4.64-5.55c-0.06-1.35,0.24-2.8,0.71-4.08c1.05-2.88,2.32-5.68,3.5-8.51c0.16-0.39,0.35-0.77,0.53-1.15
		c-0.08-0.06-0.16-0.11-0.25-0.17c-1.54,1.94-3.02,3.93-4.62,5.81c-3.71,4.38-7.41,8.77-11.25,13.03c-3.14,3.5-5.7,3.8-9.85-0.24
		c-3.03-2.95-2.97-6.41-1.46-10.04c0.73-1.75,1.47-3.5,2.04-5.34c-1.52,1.51-3.03,3.02-4.55,4.53c-4.94,4.88-9.98,9.66-15.59,13.78
		c-1.22,0.89-2.68,1.83-4.11,1.99c-2.86,0.33-7.75-3.34-8.43-6.15c-0.28-1.17-0.19-2.58,0.2-3.72c1.08-3.16,2.41-6.24,3.65-9.35
		c0.08-0.21,0.16-0.43,0.37-1c-0.48,0.39-0.72,0.53-0.9,0.74c-3.91,4.63-7.76,9.31-11.72,13.89c-1.56,1.8-3.32,3.46-5.11,5.03
		c-1.76,1.54-2.95,1.53-5.02,0.33c-4.43-2.56-6.23-7.04-4.92-12.33c1.3-5.29,4.01-9.91,7.22-14.21
		c5.38-7.22,11.77-13.45,19.26-18.49c1.08-0.73,2.3-1.26,3.5-1.8c1.45-0.64,2.83-0.3,4.03,0.65c0.79,0.61,1.53,1.28,2.23,2
		c0.67,0.68,1.24,1.45,1.96,2.3c0.84-1.21,1.63-2.38,2.46-3.52c1.65-2.25,2.89-2.66,5.38-1.35c1.3,0.68,2.39,1.81,3.49,2.83
		c0.61,0.57,0.55,1.26,0.1,2.05c-4.41,7.91-8.82,15.81-13.13,23.78c-1.29,2.38-2.26,4.92-3.36,7.4c-0.19,0.43-0.34,0.9-0.42,1.36
		c-0.06,0.36-0.1,1.01,0.06,1.08c0.34,0.16,0.88,0.16,1.22-0.01c1.58-0.85,3.24-1.61,4.64-2.7c5.62-4.33,11.18-8.76,16.73-13.17
		c1.44-1.14,2.85-2.32,4.18-3.59c0.93-0.89,1.84-1.88,2.5-2.98c2.3-3.88,4.52-7.8,6.67-11.76c0.66-1.21,1.05-2.58,1.47-3.9
		c0.44-1.38,1.06-1.81,2.49-1.5c2.14,0.46,3.86,1.66,5.41,3.14c1.19,1.14,1.38,2.47,0.62,3.92c-1.88,3.6-3.71,7.24-5.68,10.8
		c-3.26,5.85-6.63,11.64-9.93,17.48c-0.29,0.51-0.35,1.14-0.52,1.71C140.18,92.68,140.34,92.79,140.5,92.9z M211.91,96.89
		c0.33,0.68,0.43,1.23,0.74,1.41c0.23,0.13,0.84-0.15,1.11-0.41c3.11-2.98,6.28-5.91,9.25-9.02c3.16-3.32,6.36-6.65,9.13-10.3
		c3.59-4.73,6.77-9.77,10.12-14.68c0.96-1.41,0.82-1.86-0.82-2.49c-0.46-0.18-1.05-0.35-1.49-0.23c-1.17,0.34-2.49,0.6-3.39,1.33
		c-2.69,2.18-5.38,4.4-7.75,6.9c-5.84,6.18-10.62,13.15-14.31,20.82C213.46,92.39,212.74,94.72,211.91,96.89z M113.3,65.34
		c-0.72-0.13-1.39-0.46-1.92-0.31c-1.59,0.45-3.24,0.88-4.65,1.7c-3.09,1.8-5.64,4.28-8.02,6.94c-4.09,4.57-7.75,9.45-10.37,15.01
		c-0.87,1.85-1.35,3.9-1.93,5.87c-0.09,0.29,0.14,0.8,0.39,1.01c0.15,0.13,0.67-0.04,0.94-0.22c0.63-0.41,1.27-0.85,1.8-1.38
		c3.26-3.22,6.53-6.44,9.73-9.73C104.72,78.64,109.18,72.28,113.3,65.34z"/>
	<path d="M859.54,104.77c-0.73,0.59-1.45,1.19-2.2,1.76c-3.9,2.98-7.8,5.95-11.69,8.93c-0.34,0.26-0.63,0.6-0.92,0.94
		c-1.27,1.5-1.36,2.29-0.44,3.62c1.04,1.49,2.22,1.86,3.94,1.2c2.59-1,4.7-2.73,6.56-4.7c4.09-4.33,7.76-9.01,10.67-14.22
		c1.26-2.26,2.24-4.67,3.34-7.01c0.06-0.13,0.03-0.29,0.06-0.57c-1.79,1.35-3.43,2.66-5.15,3.87c-1.04,0.73-2.16,1.36-3.29,1.94
		c-2.23,1.15-4.14,0.42-5.92-1.1c-1.63-1.39-2.28-3.1-1.61-5.12c0.87-2.64,1.74-5.31,2.92-7.82c1.71-3.64,3.69-7.16,5.55-10.73
		c0.21-0.41,0.38-0.83,0.35-1.39c-0.62,0.75-1.24,1.49-1.85,2.25c-5.14,6.41-10.22,12.88-15.43,19.23
		c-1.79,2.18-3.83,4.18-5.91,6.08c-3.18,2.91-7.28,2.23-9.8-1.45c-1.68-2.46-1.57-5.09-0.48-7.63c1.41-3.29,3.09-6.47,4.66-9.7
		c0.07-0.14,0.14-0.27,0.06-0.57c-0.87,0.8-1.74,1.6-2.63,2.38c-5.64,5-11.27,10.01-16.93,14.99c-0.99,0.87-2.12,1.57-3.14,2.4
		c-1.75,1.42-3.63,1.51-5.6,0.59c-1.01-0.47-2.03-0.96-2.92-1.6c-2.72-1.97-3.41-4.09-2.11-7.2c1.55-3.72,3.32-7.34,5-11
		c0.21-0.46,0.44-0.92,0.48-1.55c-0.39,0.33-0.81,0.63-1.18,0.99c-6.18,6.12-12.43,12.18-19.28,17.58
		c-1.66,1.31-3.35,2.59-5.11,3.76c-2.8,1.86-5.05,1.8-7.7-0.27c-1.12-0.87-2.06-1.99-2.96-3.1c-1.17-1.45-1.09-3.13-0.43-4.77
		c2.07-5.13,4.15-10.26,6.3-15.37c2.07-4.92,4.22-9.81,6.31-14.72c0.19-0.45,0.22-0.97,0.35-1.59c-1.38,0.03-2.16,0.82-2.87,1.56
		c-2.85,2.97-5.79,5.86-8.41,9.02c-6.18,7.44-11.83,15.27-16.49,23.77c-0.94,1.71-1.69,3.53-2.44,5.33
		c-0.91,2.18-1.54,2.57-3.59,1.48c-1.71-0.91-3.29-2.07-4.82-3.27c-1.11-0.87-1.42-2.17-0.81-3.47c1.71-3.64,3.41-7.3,5.29-10.85
		c4.07-7.68,8.27-15.3,12.37-22.97c1.03-1.93,1.86-3.97,2.76-5.97c0.17-0.38,0.27-0.8,0.36-1.06c-2.94,2.25-5.83,4.64-8.92,6.74
		c-1.86,1.27-3.99,2.15-6.05,3.1c-1.34,0.62-2.68,0.26-3.59-0.83c-0.96-1.15-1.79-2.44-2.48-3.77c-0.53-1.02-0.19-1.37,1.02-1.48
		c6.05-0.54,11.82-1.99,16.74-5.74c1.57-1.2,2.85-2.77,4.32-4.1c0.46-0.41,1.15-0.82,1.72-0.8c2.6,0.12,5.02,0.88,7.09,2.54
		c0.96,0.77,1.43,1.78,1.04,2.96c-0.57,1.73-1.14,3.5-1.96,5.12c-1.84,3.63-3.84,7.17-5.78,10.75c-0.18,0.34-0.35,0.68-0.39,1.13
		c0.68-0.63,1.39-1.25,2.04-1.91c5.13-5.15,10.28-10.3,15.37-15.5c1.19-1.22,2.45-1.48,4.01-1.01c2.3,0.69,4.3,1.87,6.04,3.52
		c1.08,1.02,1.57,2.22,1.01,3.66c-1.15,2.93-2.18,5.92-3.53,8.76c-3.86,8.15-7.85,16.24-11.78,24.36c-0.22,0.45-0.33,0.95-0.6,1.74
		c0.75-0.25,1.27-0.31,1.65-0.57c3.4-2.3,6.88-4.52,10.14-7c6.22-4.73,12.33-9.61,18.46-14.46c0.6-0.48,1.09-1.16,1.47-1.84
		c1.73-3.1,3.34-6.27,5.14-9.33c1.03-1.76,1.4-3.62,1.55-5.58c0.13-1.67,0.68-2.17,2.27-1.98c2.84,0.34,5.43,1.29,7.5,3.36
		c1.35,1.34,1.58,2.16,0.62,3.84c-1.96,3.43-4,6.81-6.08,10.16c-2.74,4.4-5.65,8.7-8.29,13.15c-1.35,2.27-2.29,4.79-3.2,7.4
		c0.83-0.5,1.69-0.95,2.49-1.5c8.44-5.82,16.88-11.66,25.31-17.5c0.29-0.2,0.59-0.45,0.75-0.75c2.15-4.14,4.33-8.26,6.36-12.45
		c0.59-1.23,0.75-2.68,1.06-4.04c0.4-1.76,0.72-2.07,2.48-2.04c2.72,0.03,5.05,1.11,7.09,2.81c1.48,1.23,1.63,2.2,0.56,4.01
		c-2.71,4.61-5.57,9.13-8.25,13.75c-2.85,4.93-5.59,9.94-8.33,14.94c-0.44,0.81-0.67,1.74-0.99,2.61c0.12,0.07,0.23,0.15,0.35,0.22
		c2.02-2.02,4.14-3.95,6.04-6.07c4.84-5.41,9.73-10.79,14.33-16.41c3-3.66,5.55-7.71,8.29-11.59c1.98-2.8,2.56-2.99,5.59-1.36
		c1.14,0.62,2.22,1.42,3.18,2.29c1.42,1.29,1.59,2.15,0.7,3.94c-1.62,3.25-3.34,6.45-5.06,9.64c-2.77,5.12-5.58,10.22-8.35,15.34
		c-0.36,0.66-0.63,1.38-0.85,2.1c-0.33,1.1,0.06,1.53,1.18,1.25c0.84-0.21,1.69-0.51,2.46-0.92c2.79-1.52,5.29-3.42,7.38-5.84
		c1-1.16,2.42-1.31,3.63-0.34c1.2,0.97,1.76,2.95,1.12,4.36c-4.38,9.55-8.94,19-15.3,27.44c-2.72,3.62-5.76,6.95-9.65,9.37
		c-5.57,3.47-9.35,2.23-13.53-2.54c-1.57-1.79-2.55-3.92-2.84-6.36c-0.2-1.68,0.29-3.04,1.42-4.25c2.59-2.78,5.77-4.67,9.27-6.01
		c3.46-1.33,6.97-2.51,10.48-3.71c0.52-0.18,1.12-0.12,1.68-0.17C859.43,104.44,859.49,104.6,859.54,104.77z"/>
	<path d="M65.41,47.54c2.15,0.57,4.26,0.96,6.26,1.68c6.11,2.19,10.17,7.99,9.85,13.87c-0.23,4.35-1.85,8.21-4.17,11.82
		c-4.56,7.1-10.62,12.71-17.4,17.61c-8.67,6.27-18.03,11.18-28.29,14.3c-5.31,1.61-10.69,2.63-16.27,1.85
		c-4.13-0.58-7.91-1.97-11.27-4.58c-3.39-2.63-3.42-7.45,0.85-9.42c1.04,1.31,1.87,2.75,3.06,3.76c1.17,0.99,2.71,1.54,4.34,2.42
		c0-1.13-0.03-1.84,0-2.54c0.3-6.03,2.5-11.53,4.96-16.89c3.47-7.53,7.28-14.91,10.94-22.36c0.19-0.39,0.37-0.78,0.55-1.16
		c-0.74-0.56-1.48-1.03-2.11-1.63c-0.97-0.92-0.69-2.13,0.61-2.29c3.11-0.38,4.74-2.19,6.26-4.87c6.63-11.69,13.55-23.21,20.36-34.8
		c0.12-0.2,0.22-0.4,0.46-0.85c-1.26,0.25-2.3,0.41-3.32,0.66c-7.36,1.81-14.69,3.77-21.6,6.96c-1.8,0.83-3.52,1.88-5.19,2.96
		c-2.18,1.41-3.6,3.46-4.47,5.9c-0.5,1.41-1.46,1.6-2.59,0.55c-1.25-1.14-1.33-2.69-1.3-4.2c0.09-4.94,2.43-8.6,6.44-11.39
		c5.57-3.87,11.85-6.03,18.33-7.7c6.43-1.66,12.97-2.64,19.59-3.09c0.43-0.03,0.93-0.38,1.24-0.72c2.28-2.44,2.04-2.96,5.86-1.22
		c0.25,0.12,0.54,0.21,0.74,0.39c1.87,1.65,4.21,1.63,6.49,1.96c4.65,0.67,9.13,1.93,13.14,4.49c0.87,0.55,1.68,1.21,2.48,1.87
		c2.84,2.32,2.85,5.43,2.34,8.65c-0.77,4.87-3.34,8.83-6.42,12.51c-5.19,6.2-11.89,10.44-18.81,14.4
		C66.72,46.82,66.07,47.18,65.41,47.54z M21.64,100.29c0.12,0.09,0.24,0.17,0.37,0.26c0.42-0.1,0.86-0.16,1.25-0.32
		c3.25-1.31,6.58-2.46,9.72-4c8.33-4.1,16.11-9.11,23.21-15.11c4.62-3.9,8.88-8.16,12.21-13.25c2.01-3.07,3.63-6.29,3.53-10.12
		c-0.07-2.8-1.49-4.63-4.25-4.83c-2.25-0.16-4.54-0.05-6.79,0.18c-6.02,0.61-11.82,2.28-17.59,4.02c-0.47,0.14-0.96,0.56-1.22,0.99
		c-1.27,2.12-2.5,4.27-3.69,6.44c-5.11,9.3-10.23,18.59-14.24,28.44C23.18,95.37,22.47,97.86,21.64,100.29z M50.44,43.43
		c0.08,0.07,0.16,0.14,0.24,0.21c0.35-0.16,0.72-0.29,1.05-0.49c4.96-2.97,10.01-5.79,14.83-8.96c5.07-3.33,9.81-7.13,13.6-11.96
		c1.29-1.64,2.38-3.4,2.76-5.5c0.49-2.69-0.56-4.42-3.17-5.35c-2.77-0.99-5.59-0.6-8.41-0.48c-0.71,0.03-1.1,0.36-1.47,0.97
		c-2.29,3.74-4.65,7.44-6.95,11.17C58.75,29.83,54.6,36.64,50.44,43.43z"/>
	<path d="M922.2,59.13c1.49-2.12,3-4.23,4.48-6.35c0.64-0.92,1.43-1.2,2.57-1.04c2.28,0.33,3.97,1.5,5.4,3.23
		c0.65,0.8,0.69,1.5,0.14,2.38c-2.78,4.52-5.58,9.03-8.27,13.6c-5.01,8.49-9.72,17.14-13.18,26.4c-1.43,3.82-2.75,7.67-3.02,11.78
		c-0.25,3.77-0.07,7.5,1.4,11.06c0.08,0.18,0.11,0.38,0.23,0.84c-0.56,0-1.05,0.09-1.5-0.02c-2.59-0.63-4.21-2.48-5.58-4.6
		c-2.46-3.83-2.48-8.09-2.03-12.39c0.69-6.64,3.09-12.76,5.87-18.75c0.24-0.52,0.46-1.04,0.7-1.56c-0.11-0.06-0.22-0.13-0.32-0.19
		c-0.63,0.79-1.25,1.59-1.88,2.38c-4.03,5.1-8.03,10.22-12.11,15.28c-1.02,1.27-2.22,2.4-3.44,3.49c-1.69,1.52-2.98,1.64-4.87,0.37
		c-4.83-3.26-6.21-6.6-5.17-12.15c1.05-5.59,3.4-10.62,6.41-15.35c4.77-7.47,10.71-13.91,17.96-19.02c2.1-1.48,4.46-2.61,6.8-3.68
		c2.59-1.18,4.92-0.44,6.86,1.55C920.55,57.27,921.36,58.21,922.2,59.13z M920.2,62.57c-1.4-1.5-2.75-1.87-4.54-1.13
		c-2.94,1.21-5.24,3.34-7.43,5.54c-6.01,6.02-11.05,12.8-15.03,20.31c-1.5,2.83-2.54,5.91-3.66,8.92c-0.22,0.59,0.12,1.4,0.2,2.11
		c0.61-0.31,1.34-0.49,1.8-0.94c3.5-3.43,6.97-6.9,10.42-10.38C909.16,79.73,914.96,71.41,920.2,62.57z"/>
	<path d="M133.05,110.52c0.1-0.07,0.14-0.11,0.16-0.11c2.98,0.79,5.61-0.68,8.34-1.36c8.43-2.09,16.94-3.5,25.64-3.77
		c4.55-0.14,8.99,0.5,13.36,1.62c0.64,0.16,1.17,0.74,1.75,1.12c-0.68,0.21-1.36,0.55-2.05,0.61c-4.6,0.41-9.24,0.54-13.81,1.18
		c-8.03,1.13-15.88,3.15-23.58,5.71c-0.64,0.21-1.32,0.34-1.94,0.6c-2.01,0.87-3.7,0.33-5.05-1.24c-1-1.17-1.84-2.49-2.73-3.76
		C133.01,110.99,133.07,110.71,133.05,110.52z"/>
	<path d="M843.26,35.56c-0.05,0.13-0.13,0.66-0.41,1.06c-2.66,3.81-5.75,7.24-9.38,10.16c-1,0.8-2.1,0.99-3.22,0.32
		c-1.15-0.69-1.66-1.78-1.29-3.07c0.96-3.29,2.11-6.52,2.98-9.83c0.43-1.64,1.32-2.27,2.88-2.34c1.47-0.07,2.94-0.3,4.41-0.33
		C842.19,31.47,842.95,32.2,843.26,35.56z"/>
	<path d="M938.07,85.87c3.1,0.5,6.16,1.53,8.79,3.59c0.88,0.69,1.25,2.04,0.58,3.05c-2.43,3.68-4.9,7.39-8.54,9.99
		c-2.46,1.76-3.65,1.06-4.17-1.94c-0.48-2.74,0.23-5.29,1.17-7.81c0.54-1.45,1.18-2.87,1.69-4.34
		C937.84,87.66,937.89,86.84,938.07,85.87z"/>
</g>
</svg>
